PathFileType	4	(X/Y/Z)	Patient4_TMGait_0pt8_01_left_03.trc.trc
DataRate	CameraRate	NumFrames	NumMarkers	Units	OrigDataRate	OrigDataStartFrame	OrigNumFrames
88.607594936709	88.607594936709	4	33	mm	88.607594936709	71	       141
Frame#	Time	Sacral			L.Shoulder			Chest			R.Shoulder			Neck			R.ASIS			L.ASIS			R.Thigh.Superior			R.Thigh.Lateral			R.Thigh.Inferior			R.Patella			L.Thigh.Superior			L.Thigh.Lateral			L.Thigh.Inferior			L.Patella			L.Shank.Superior			L.Shank.Lateral			L.Shank.Inferior			R.Shank.Superior			R.Shank.Lateral			R.Shank.Inferior			R.Heel			R.Midfoot.Superior			R.Midfoot.Lateral			R.Toe			L.Heel			L.Midfoot.Lateral			L.Midfoot.Superior			L.Toe			L.Elbow			L.Wrist			R.Elbow			R.Wrist			
		X1	Y1	Z1	X2	Y2	Z2	X3	Y3	Z3	X4	Y4	Z4	X5	Y5	Z5	X6	Y6	Z6	X7	Y7	Z7	X8	Y8	Z8	X9	Y9	Z9	X10	Y10	Z10	X11	Y11	Z11	X12	Y12	Z12	X13	Y13	Z13	X14	Y14	Z14	X15	Y15	Z15	X16	Y16	Z16	X17	Y17	Z17	X18	Y18	Z18	X19	Y19	Z19	X20	Y20	Z20	X21	Y21	Z21	X22	Y22	Z22	X23	Y23	Z23	X24	Y24	Z24	X25	Y25	Z25	X26	Y26	Z26	X27	Y27	Z27	X28	Y28	Z28	X29	Y29	Z29	X30	Y30	Z30	X31	Y31	Z31	X32	Y32	Z32	X33	Y33	Z33	

71	3.240000000000	761.349438811305	1004.662787904547	427.209535906404	1000.080745073612	1423.854904647237	274.657916224912	1065.787967657449	1344.474923179818	449.466904546917	959.729755547272	1424.789730741362	607.844681923996	971.391398627384	1483.504010589414	428.163367263889	975.001749043727	934.266628843399	567.697469818474	986.490659330665	950.516666482628	291.776133803636	1045.248059588218	764.044174309144	548.823543048320	998.578660332186	644.181049872119	624.056638781766	1091.401873052803	604.360042676593	549.494874201847	1125.179337112244	528.700435203369	569.993466266857	979.978142847007	725.607897146261	317.794019300936	859.849050510036	633.663095208801	256.353336238543	918.146777597841	538.742378935330	319.947594336820	901.866362764552	473.431034210261	330.680558786717	867.590205268902	408.549025908878	324.502401621819	763.964086276395	305.444152511717	277.760496289639	799.752982918749	189.905943383673	350.714471423141	1119.094039175702	443.396739156742	582.396167462448	1077.577605537872	325.092923083233	645.667098406672	1161.004195449357	248.125852228860	600.362285424459	1094.024893903425	51.974640625510	568.673258855571	1247.567000203137	140.293829722424	619.264533703475	1174.940914325273	55.292866712446	646.107726647356	1373.346828406053	113.448666607631	649.946720632391	659.213536882257	42.187410626612	400.282394156262	729.700911003550	36.691417579353	317.317645418311	815.417518785112	95.660340652810	340.568002331847	941.066050204648	39.975295092919	306.370095823748	1065.212263048339	1107.397730627510	110.012737810521	1311.452478270485	1053.486190898873	157.198880023848	770.756857558715	1130.751567617088	696.187195227783	698.333651961647	881.576734841617	715.704477348633	
72	3.251285714286	763.261927964990	1002.282946179386	429.378923604117	999.352127100812	1422.432413489042	276.350736254280	1065.800077964307	1343.586559043641	451.096003728691	959.590336164358	1423.523171986096	609.523771752381	970.574956583375	1481.944262139767	429.810125799491	977.257571989962	932.144689291515	569.502631821177	989.214789566576	949.397320806562	293.896090645989	1046.011226229975	760.336129122858	550.334638270236	997.665248285278	640.404764076616	624.740996975415	1090.145298600030	600.540926192053	549.752717605830	1123.063859635115	525.814985362008	569.245639276463	979.024564238098	723.503114116837	319.209942330784	857.442862481790	633.126980022272	257.378541385825	914.222983348824	537.373936228579	321.118870153826	897.259434508428	472.052756736067	331.550583299104	862.184573070357	407.651603231248	325.222952031265	757.344737196005	305.759808967385	278.280062050404	791.944832689334	189.674119653662	350.930259646734	1118.618519419563	440.581104984937	581.805547761076	1078.685169460272	321.209265740451	643.960662050285	1164.032939335158	245.995665902959	598.858149458379	1100.795933816029	49.051477726686	565.919249279256	1252.786772245481	138.896274240686	617.177030556720	1181.159443709516	53.386717324752	643.759445463719	1378.820485901047	113.801202584334	648.728686147597	650.162910965336	42.660610926706	400.166174629444	720.719313097433	36.928233619258	317.292499488305	806.524147585194	95.703260711907	340.600603528081	932.032640213930	39.770976826480	306.340659124546	1064.920538198525	1106.328314102667	111.476501248180	1312.017507327029	1059.901502417844	159.755862183580	766.938595222690	1132.868062296021	697.474227713531	691.768757523739	884.423601105340	715.976681707005	
73	3.262571428571	765.281978403822	999.762042150450	431.829524166947	998.487015685218	1420.911103315511	278.162770751416	1065.800571649266	1342.711729245007	452.838286586277	959.395546767010	1422.188830266518	611.344580956427	969.660056231462	1480.304575209662	431.583478708886	979.754773846641	929.943663795965	571.468742736145	992.193446305156	948.250326551170	296.241403978726	1047.576102567758	757.090232133195	551.828223024355	997.741298052759	636.838998378019	625.190440782288	1090.024113848008	597.276238925760	549.958549365272	1121.973950478073	522.880704165144	568.440602388239	978.434954142677	721.395019783705	320.716800113455	855.553190149685	632.456111583540	258.545281485658	910.977129482396	535.916727338247	322.387910292421	893.349970030562	470.456152227374	332.516028263213	857.364798575972	406.545388850442	326.006285626123	751.108246372338	306.086788096347	278.837675777945	784.308855090332	189.385411578524	351.117925908657	1118.451727613764	437.354211346441	580.948663292717	1078.902659825802	317.365845376930	641.882273356933	1165.154992544080	243.108563242372	596.888483158876	1103.435827676332	46.551767809740	562.822956591130	1254.712472607108	136.201640523781	614.486221570592	1183.236929052175	51.230240941160	641.097976168228	1380.665309097458	111.552848191556	647.003235377527	641.084197134707	43.226633451626	399.999140067367	711.731890663241	37.159360273635	317.229126889183	797.660302944960	95.754341071167	340.580526958172	923.027867452987	39.568916442315	306.298717148244	1064.237524712980	1104.962683904430	113.172740589848	1311.941363454763	1065.344654433771	162.347496498796	763.830403547028	1134.409185400273	698.892149787281	686.477257736664	886.509238137975	716.545673068912	
74	3.273857142857	767.376560569156	997.167295237631	434.555790666238	997.523498512893	1419.319239154194	280.109593861044	1065.816159569570	1341.857789648798	454.701749272088	959.189128794958	1420.802780136869	613.329546371030	968.699144292724	1478.624756153381	433.500247387600	982.473495177167	927.717585012117	573.577867325744	995.271763243957	947.081362918772	298.763828591726	1049.942283205812	754.353005771686	553.282219952410	998.783355761330	633.559141278124	625.418726357189	1091.031593463874	594.607766338547	550.149376267499	1121.920449652814	519.957749362707	567.591436055413	978.258835816676	719.330125708007	322.273419723770	854.246610680227	631.636846085774	259.862670226321	908.554622752721	534.364585572919	323.712528490189	890.294774036924	468.607359967315	333.530287020923	853.239331402657	405.202249671998	326.834193067778	745.335401600948	306.445350339003	279.434638367200	776.889908570453	189.050896114715	351.260080392893	1118.686209472641	433.824257389310	579.878911316475	1078.486595651592	313.625203455893	639.618778484783	1164.671724355845	239.541371827001	594.585211512832	1102.318039991031	44.449193099784	559.629038925646	1253.760714158303	132.305155579570	611.348071705326	1181.617700595814	48.853548971549	638.326732906384	1379.357039612135	106.834379949040	644.830657769456	631.983099338112	43.947173157192	399.769271748167	702.738694996292	37.397917059018	317.122187494549	788.852202297026	95.811962963032	340.483318563313	914.054964924119	39.373484278643	306.243894749955	1063.154213129642	1103.312827829341	115.109017970007	1311.278357309636	1069.763505991385	164.954240527943	761.512764361716	1135.280004959088	700.441929542334	682.487061207412	887.762209217002	717.438753391141	
